<?xml version="1.0" encoding="UTF-8" standalone="no"?>
<!-- Created with Inkscape (http://www.inkscape.org/) -->

<svg
   width="210mm"
   height="210mm"
   viewBox="0 0 210 210"
   version="1.1"
   id="svg1"
   xml:space="preserve"
   inkscape:version="1.4.2 (ebf0e940d0, 2025-05-08)"
   sodipodi:docname="logo.svg"
   inkscape:export-filename="logo.png"
   inkscape:export-xdpi="96"
   inkscape:export-ydpi="96"
   xmlns:inkscape="http://www.inkscape.org/namespaces/inkscape"
   xmlns:sodipodi="http://sodipodi.sourceforge.net/DTD/sodipodi-0.dtd"
   xmlns="http://www.w3.org/2000/svg"
   xmlns:svg="http://www.w3.org/2000/svg"><sodipodi:namedview
     id="namedview1"
     pagecolor="#ffffff"
     bordercolor="#000000"
     borderopacity="0.25"
     inkscape:showpageshadow="2"
     inkscape:pageopacity="0.0"
     inkscape:pagecheckerboard="0"
     inkscape:deskcolor="#d1d1d1"
     inkscape:document-units="mm"
     inkscape:zoom="1"
     inkscape:cx="323.49999"
     inkscape:cy="329.99999"
     inkscape:window-width="3428"
     inkscape:window-height="2132"
     inkscape:window-x="0"
     inkscape:window-y="0"
     inkscape:window-maximized="1"
     inkscape:current-layer="layer1" /><defs
     id="defs1"><inkscape:perspective
       sodipodi:type="inkscape:persp3d"
       inkscape:vp_x="0 : 105 : 1"
       inkscape:vp_y="0 : 1000 : 0"
       inkscape:vp_z="210 : 105 : 1"
       inkscape:persp3d-origin="105 : 70 : 1"
       id="perspective1" /></defs><g
     inkscape:label="Layer 1"
     inkscape:groupmode="layer"
     id="layer1"><g
       id="g4"
       transform="matrix(2.6355923,0,0,2.6355923,-105.38113,-53.270728)"><rect
         style="fill:#4e595b;fill-opacity:1;stroke-width:0.904534;stroke-linecap:round;stroke-linejoin:bevel"
         id="rect3"
         width="1.5875"
         height="9.921875"
         x="88.304695"
         y="30.823965"
         ry="0.30234089" /><path
         id="path1"
         style="fill:#f88012;fill-opacity:1;stroke-width:1.2;stroke-linecap:round;stroke-linejoin:bevel"
         d="m 75.472396,32.014583 -16.271875,8.665104 -11.377084,19.513021 -4.894791,18.851563 9.128125,10.715625 11.310937,-5.754688 5.490621,-6.550504 h -3.967716 c -4.440679,0 -8.015532,-3.574853 -8.015532,-8.015532 v -5.951574 c 0,-4.440679 3.574853,-8.016049 8.015532,-8.016049 H 91.05439 c 2.2718,-1.448074 4.129464,-2.621028 4.129464,-2.621028 l 5.159376,-4.894792 0.66146,-4.564062 z" /><path
         id="path2"
         style="fill:#df630d;fill-opacity:1;stroke-width:1.2;stroke-linecap:round;stroke-linejoin:bevel"
         d="m 101.35401,43.674843 -0.92604,4.630209 -4.828647,4.630208 -4.400765,2.75332 h 1.843815 c 4.440679,0 8.015527,3.57537 8.015527,8.016049 v 5.951574 c 0,4.440679 -3.574848,8.015532 -8.015527,8.015532 H 69.07381 l -5.290633,6.352067 -11.840104,6.019271 2.976562,3.505729 21.166667,4.828646 27.715098,-4.960938 11.50938,-15.147396 c 0,0 -4.96094,-19.182292 -4.96094,-20.108333 0,-0.926042 -8.99583,-14.485938 -8.99583,-14.485938 z" /><circle
         style="fill:#f88012;fill-opacity:1;stroke-width:1.2;stroke-linecap:round;stroke-linejoin:bevel"
         id="path3"
         cx="89.230736"
         cy="26.590633"
         r="4.9609375" /><path
         id="rect4-6"
         style="fill:#4e595b;fill-opacity:1;stroke-width:1.01513;stroke-linecap:round;stroke-linejoin:bevel"
         d="m 65.88125,57.576331 c -3.590336,0 -6.480741,2.890405 -6.480741,6.480741 v 4.812109 c 0,3.590337 2.890405,6.480742 6.480741,6.480742 h 25.952938 c 3.590336,0 6.480741,-2.890405 6.480741,-6.480742 v -4.812109 c 0,-3.590336 -2.890405,-6.480741 -6.480741,-6.480741 z m 5.038969,4.279842 a 4.6070585,4.6070585 0 0 1 4.606954,4.606954 4.6070585,4.6070585 0 0 1 -4.606954,4.606954 4.6070585,4.6070585 0 0 1 -4.606954,-4.606954 4.6070585,4.6070585 0 0 1 4.606954,-4.606954 z m 15.875,0 a 4.6070585,4.6070585 0 0 1 4.606954,4.606954 4.6070585,4.6070585 0 0 1 -4.606954,4.606954 4.6070585,4.6070585 0 0 1 -4.606954,-4.606954 4.6070585,4.6070585 0 0 1 4.606954,-4.606954 z" /></g></g></svg>
